{"glyphs":{":":{"x_min":0,"x_max":299,"ha":299,"o":"m 61 8 l 66 153 l 79 163 l 187 190 l 209 195 l 214 196 q 221 198 241 198 l 246 185 l 228 35 l 220 31 l 213 27 q 155 0 83 0 z m 61 425 l 66 570 l 79 580 l 187 607 l 209 613 l 214 614 q 229 616 241 615 l 246 602 l 228 453 l 220 448 l 213 445 q 156 417 83 417 z"},"$":{"x_min":0,"x_max":618,"ha":618,"o":"m 33 547 l 52 587 l 132 708 q 167 725 213 725 q 232 725 242 723 l 240 790 l 251 796 l 361 790 l 370 723 l 448 716 l 478 679 l 567 515 l 569 496 l 552 500 l 426 567 q 407 571 383 571 q 320 571 269 528 l 403 437 l 474 392 l 506 368 q 535 344 553 320 q 571 296 586 264 l 582 252 l 351 -10 l 301 -14 l 297 -101 l 290 -105 q 281 -109 267 -109 q 237 -109 222 -98 q 206 -87 206 -77 l 210 9 l 204 16 l 135 27 l 108 100 l 55 271 l 63 279 l 264 221 l 314 254 l 323 303 q 292 320 262 333 q 233 346 178 366 q 166 370 151 377 q 125 390 106 399 z"},"?":{"x_min":0,"x_max":589,"ha":589,"o":"m -17 740 l -12 745 l 136 750 l 228 748 l 360 731 l 485 714 l 492 699 l 498 683 l 510 653 l 557 553 l 567 504 l 508 479 l 440 439 l 338 361 q 331 355 326 344 q 322 333 322 317 q 322 301 330 274 q 333 267 335 262 q 338 256 343 250 l 336 245 l 243 219 q 198 207 177 193 l 168 202 l 140 273 l 139 316 l 162 404 l 228 469 l 323 552 l 311 592 l 289 592 q 238 592 182 573 l 95 542 l 90 538 l 80 548 l 10 687 z m 173 8 l 178 153 l 191 163 l 299 190 l 321 195 l 326 196 q 334 198 353 198 l 358 185 l 340 35 l 332 31 l 325 27 q 267 0 195 0 z"},"a":{"x_min":0,"x_max":583,"ha":583,"o":"m 22 183 l 26 245 l 44 336 l 84 417 l 146 510 l 199 570 l 258 627 q 272 638 291 635 l 323 614 l 366 586 l 384 591 l 521 638 l 537 629 l 540 461 l 531 69 l 522 25 l 366 -5 l 362 -1 l 361 50 l 352 53 l 276 41 l 171 7 l 93 -21 l 59 -23 l 54 -16 l 36 86 z m 176 193 q 182 172 199 160 q 216 148 228 152 l 271 169 l 310 184 l 315 186 l 357 209 l 359 314 l 361 453 q 349 459 335 459 q 315 459 298 446 q 281 433 275 412 l 213 335 l 198 312 q 172 264 172 219 q 172 212 173 205 q 173 202 176 193 z"},"L":{"x_min":0,"x_max":601,"ha":601,"o":"m 29 -14 l 49 105 l 53 194 l 62 511 l 61 701 l 67 708 l 246 723 l 338 740 l 347 733 l 285 617 l 262 552 l 246 471 l 228 309 l 225 216 q 225 203 226 196 q 227 189 234 165 l 238 151 l 247 147 l 326 148 l 359 156 l 450 194 l 463 200 q 527 234 550 254 q 574 274 590 305 l 605 302 l 608 290 l 576 166 l 558 105 l 535 15 l 531 5 l 511 10 l 390 15 l 292 10 l 33 -16 z"},"3":{"x_min":0,"x_max":600,"ha":600,"o":"m 42 474 l 43 503 l 45 531 l 46 559 l 48 588 l 55 593 l 224 594 l 368 600 l 537 598 l 516 556 l 430 424 l 402 361 l 407 356 q 457 350 505 332 l 506 320 l 502 161 l 501 110 q 469 69 424 39 q 386 14 361 2 q 336 -11 321 -14 l 170 -48 l 136 -44 q 118 -42 113 -41 q 108 -40 103 -36 q 98 -31 103 -25 l 224 64 q 233 70 244 82 q 259 98 280 123 q 300 148 320 181 l 320 201 q 314 231 286 242 l 212 264 l 85 290 l 79 297 l 99 361 l 185 390 l 256 434 l 266 446 l 254 455 q 227 472 199 478 q 171 484 122 484 q 104 484 86 480 q 69 477 47 468 z"},";":{"x_min":0,"x_max":318,"ha":318,"o":"m 89 425 l 94 570 l 107 580 l 215 607 l 237 613 l 242 614 q 258 616 269 615 l 274 602 l 256 453 l 249 448 l 241 445 q 184 417 111 417 z m -49 -167 q -49 -128 -33 -98 q -27 -87 4 -37 q 21 -12 36 28 l 63 98 l 84 118 l 155 147 l 195 160 l 232 179 l 256 193 l 267 199 l 274 199 l 270 178 q 266 160 262 150 q 259 139 248 120 l 189 23 l 128 -39 l 43 -109 l -44 -167 z"},"J":{"x_min":0,"x_max":536,"ha":536,"o":"m -14 -3 l 8 76 l 38 186 l 48 188 l 185 160 q 202 157 206 156 q 213 155 226 155 q 260 155 292 172 q 295 178 299 193 q 303 208 306 224 q 309 239 309 242 q 310 250 310 263 l 310 423 l 278 671 l 288 679 l 456 733 l 493 745 l 500 742 l 496 648 l 469 340 l 469 131 l 468 25 l 435 22 l 263 25 l 154 15 l -11 -13 z"},"V":{"x_min":0,"x_max":699,"ha":699,"o":"m 36 689 l 47 695 l 132 708 l 227 727 l 289 739 l 292 734 l 267 618 l 252 450 l 253 302 l 260 181 l 269 177 l 329 224 l 387 293 l 428 371 l 451 428 l 477 532 q 477 559 471 579 q 465 599 447 641 l 424 692 l 448 705 l 595 737 l 698 755 l 713 743 l 707 659 l 665 470 l 647 413 l 601 293 l 556 211 l 480 109 l 412 19 l 365 14 l 162 -3 l 64 -17 l 58 -12 l 68 98 l 74 245 l 77 340 l 72 500 l 58 592 z"},"7":{"x_min":0,"x_max":602,"ha":602,"o":"m 16 368 l 33 427 l 71 576 l 84 600 l 233 600 l 404 604 l 489 607 l 537 608 l 583 608 q 586 603 586 600 q 583 588 578 581 l 558 557 l 498 464 l 446 366 l 410 284 q 405 271 400 258 q 396 245 392 223 q 387 201 385 188 q 383 174 383 157 q 383 138 388 100 l 393 72 l 395 60 l 327 51 l 226 30 l 109 -22 l 81 -27 l 52 -30 l 68 -9 l 99 34 l 193 167 l 323 376 l 371 456 l 368 461 l 349 465 q 294 476 263 476 q 237 476 206 466 l 169 455 l 89 406 l 22 350 z"},"S":{"x_min":0,"x_max":676,"ha":676,"o":"m -36 -31 l -28 7 l 4 64 l 46 133 l 98 240 l 122 230 l 250 187 l 366 154 q 371 153 381 153 q 420 153 451 178 l 450 190 q 449 201 446 210 q 442 220 437 230 l 400 296 l 349 362 q 336 378 320 393 q 297 415 278 430 q 259 444 232 460 q 204 475 169 489 q 124 506 81 513 l 75 523 l 84 536 l 153 674 l 179 725 l 193 726 l 206 727 l 233 729 l 409 743 l 598 762 l 630 750 l 623 717 l 584 587 l 571 541 l 561 541 l 473 577 l 400 597 q 389 600 380 600 q 359 600 339 587 l 361 557 l 456 485 l 548 395 l 610 311 l 673 208 l 676 165 l 622 19 q 616 16 609 14 q 603 12 594 11 l 561 10 l 370 1 l 28 -25 z"},"Z":{"x_min":0,"x_max":703,"ha":703,"o":"m 0 6 l 1 17 l 125 159 l 222 288 l 310 430 l 383 567 l 376 572 l 356 574 q 306 574 258 557 l 148 516 l 46 450 l 27 439 l 31 480 l 57 592 l 96 710 l 108 729 l 288 731 l 481 738 l 629 743 l 710 742 l 706 723 l 613 582 l 506 411 l 431 275 l 380 186 l 386 183 l 502 184 l 528 191 q 576 204 597 212 q 618 221 627 229 l 680 271 l 687 266 l 668 210 l 617 28 l 609 24 l 309 3 l 68 -18 l 33 -9 z"},"x":{"x_min":0,"x_max":633,"ha":633,"o":"m -22 596 l -13 601 l 186 619 l 215 612 l 216 602 l 303 477 l 331 454 l 343 467 l 426 574 l 442 599 l 635 617 l 655 616 l 655 608 l 572 485 l 456 343 l 441 307 l 534 189 l 635 43 l 616 32 l 543 15 l 451 -13 l 435 6 l 387 83 l 359 128 q 339 161 328 171 q 318 181 313 175 l 214 45 q 202 34 183 28 l 145 26 l 33 13 l -16 10 l 57 120 l 209 315 l 186 352 l 69 499 l -7 576 z"},")":{"x_min":0,"x_max":360,"ha":360,"o":"m 21 -61 l 68 59 l 90 110 q 91 113 93 120 q 101 150 104 164 q 113 209 113 221 l 115 407 l 106 497 l 92 544 l 24 724 l 108 676 l 182 618 l 231 566 l 274 504 l 295 465 l 309 363 l 312 321 q 312 304 312 296 q 312 281 311 266 q 310 252 307 236 l 271 180 l 212 99 l 136 19 l 75 -28 z"},"&":{"x_min":0,"x_max":869,"ha":869,"o":"m 28 159 l 33 182 q 47 243 60 267 q 72 291 104 321 l 199 408 l 196 416 l 85 553 l 88 562 l 212 680 l 269 724 l 344 715 l 467 715 l 561 724 l 569 722 l 623 671 l 623 653 l 599 575 l 561 491 l 514 409 l 497 385 l 502 381 l 599 374 l 639 366 l 671 385 l 756 465 l 787 491 l 787 467 l 778 386 l 752 314 q 737 294 722 278 q 708 262 687 246 l 738 203 l 850 129 q 844 113 835 109 q 812 100 794 92 q 776 84 759 72 q 742 59 723 37 l 706 17 l 695 17 l 566 105 l 537 111 l 460 25 l 444 0 l 414 1 l 305 17 q 289 18 278 18 q 267 19 263 19 q 234 19 216 17 q 199 15 187 14 l 166 11 l 97 88 z m 330 511 l 353 487 q 373 467 384 460 q 395 453 411 450 l 445 536 l 462 596 q 444 606 432 606 q 415 606 346 581 q 333 576 318 566 q 302 557 296 552 l 322 519 z m 307 135 l 338 135 q 424 143 472 208 l 444 250 l 440 249 l 419 264 q 343 318 289 338 l 288 236 l 301 143 z"},"_":{"x_min":0,"x_max":562,"ha":562,"o":"m -7 0 l -7 36 l 569 36 l 569 0 z"},"v":{"x_min":0,"x_max":620,"ha":620,"o":"m 0 581 l 0 603 l 20 608 l 186 605 l 215 607 q 222 608 245 605 l 240 567 l 235 530 l 235 453 l 247 281 q 247 263 257 243 q 267 223 283 206 l 303 188 l 314 191 l 351 232 l 391 301 l 412 359 l 423 430 q 425 446 425 458 q 425 482 419 515 l 413 539 l 393 607 l 443 612 l 613 623 l 627 614 l 622 551 l 602 452 l 587 398 l 556 289 l 523 220 l 459 130 l 448 109 l 403 44 l 393 22 l 311 7 l 240 -9 l 143 -15 l 138 -14 l 128 59 l 110 145 l 88 228 l 36 398 l 27 437 z"},"O":{"x_min":0,"x_max":759,"ha":759,"o":"m 7 291 l 7 296 l 150 547 l 231 697 l 362 713 l 586 749 l 613 713 l 666 565 l 752 338 l 747 327 l 673 208 l 577 28 l 534 11 l 333 -15 l 231 -28 l 221 -21 l 149 88 l 64 209 l 35 249 z m 267 216 l 365 127 l 392 125 l 461 202 l 486 240 l 535 314 l 566 370 l 532 438 l 513 470 l 425 581 l 415 583 l 346 518 l 308 467 l 231 345 l 216 311 l 224 292 q 238 259 249 240 q 260 222 267 216 z"},"(":{"x_min":0,"x_max":364,"ha":364,"o":"m 47 427 l 83 483 l 141 564 l 218 644 l 279 691 l 333 724 l 286 604 l 264 553 q 262 547 259 537 q 253 516 250 499 q 241 454 241 442 l 238 256 l 247 166 l 261 119 l 330 -61 l 246 -13 l 172 45 l 122 97 l 80 159 l 59 198 l 45 300 l 42 342 q 42 359 42 380 q 42 401 47 427 z"},"C":{"x_min":0,"x_max":753,"ha":753,"o":"m 27 344 l 63 452 l 115 577 l 149 659 l 179 716 l 331 730 l 587 744 l 700 739 l 731 730 l 710 680 l 685 633 l 612 494 l 593 498 l 501 559 l 406 613 q 364 613 328 592 l 271 467 l 227 348 q 221 328 221 308 q 221 277 227 268 l 262 220 l 341 123 l 356 126 l 559 225 l 602 265 l 665 339 q 673 348 680 360 q 686 372 695 390 l 703 405 l 726 383 l 665 52 l 654 47 l 399 6 l 222 -26 l 172 -25 l 165 -3 l 121 90 l 31 280 q 22 300 22 316 q 22 327 27 344 z"},"W":{"x_min":0,"x_max":969,"ha":969,"o":"m -7 717 l -7 737 l 186 740 l 212 741 l 221 741 l 239 741 l 238 714 l 259 504 l 276 389 l 295 319 l 311 324 l 363 395 l 382 462 l 433 678 l 433 731 l 438 736 l 525 732 l 581 737 l 587 729 l 614 644 l 640 548 l 671 457 l 696 414 l 711 421 l 752 492 l 772 541 q 777 554 782 570 q 786 585 787 593 l 805 696 l 815 701 l 970 714 l 976 675 l 953 505 l 911 347 l 870 232 l 807 79 l 784 33 l 747 23 l 652 10 l 604 10 l 606 40 l 632 162 q 633 165 633 173 q 633 183 628 203 l 620 230 l 617 240 l 603 277 l 572 346 l 558 371 l 541 395 l 535 388 l 419 144 l 363 43 q 353 26 332 14 q 311 1 279 -3 l 143 -20 l 138 -13 l 152 79 q 151 87 150 103 q 150 119 150 133 q 150 153 148 162 q 147 170 143 186 l 104 391 l 86 460 z"},"A":{"x_min":0,"x_max":753,"ha":753,"o":"m -14 4 l 8 75 l 66 255 l 117 401 l 130 469 l 134 552 l 134 598 l 135 619 q 135 641 136 650 q 138 660 144 688 l 153 693 l 293 709 l 501 724 l 603 728 l 692 724 l 701 714 l 710 651 l 709 452 l 692 56 l 675 32 l 448 0 l 445 15 l 482 90 q 479 121 468 153 l 460 158 l 371 163 l 268 143 l 247 134 l 241 56 l 224 15 l 93 -2 l 6 -8 z m 384 298 l 501 332 l 509 341 l 532 438 l 523 525 l 510 535 l 423 561 l 329 581 l 323 576 l 279 338 l 278 312 q 292 306 303 303 q 314 300 332 298 q 350 295 362 295 q 375 295 384 298 z"},"f":{"x_min":0,"x_max":430,"ha":430,"o":"m 14 -11 l 71 203 l 96 316 q 92 323 88 326 q 87 327 80 328 q 72 330 59 331 q 51 331 46 336 q 40 341 39 348 l 33 428 l 15 517 l 29 520 l 106 492 l 111 494 l 107 535 l 87 637 l 76 711 l 83 715 l 167 705 l 229 708 l 338 730 l 434 757 l 444 752 l 444 642 l 418 618 l 280 599 l 275 591 l 279 546 l 283 502 q 297 498 298 498 q 303 497 313 497 q 334 497 396 520 l 408 525 l 413 518 l 403 384 l 407 346 l 400 344 l 265 356 l 255 349 l 263 270 l 279 183 l 317 21 l 280 13 l 127 7 q 104 7 41 -9 l 19 -16 z"},"Q":{"x_min":0,"x_max":797,"ha":797,"o":"m 7 285 l 66 386 l 132 510 l 205 646 l 217 677 q 221 687 225 692 q 233 701 237 706 l 405 716 l 474 725 l 566 742 l 588 716 l 748 413 l 790 335 l 781 321 l 772 307 l 755 278 l 666 125 l 592 6 l 586 4 l 470 -7 l 486 -44 l 520 -72 l 574 -79 l 560 -119 l 550 -120 l 345 -88 l 333 -83 q 311 -72 300 -65 q 288 -58 282 -53 l 208 20 l 128 117 l 60 205 q 41 230 40 232 q 28 248 19 265 z m 238 251 l 246 243 l 267 223 l 407 89 l 416 88 l 450 134 l 486 177 l 573 291 q 586 307 594 337 l 596 353 l 546 427 l 447 557 q 433 575 426 580 q 420 586 407 590 l 361 553 l 295 431 l 224 307 l 210 279 l 225 264 z"},"w":{"x_min":0,"x_max":862,"ha":862,"o":"m 0 555 l 8 597 l 173 623 l 190 616 l 187 455 l 190 375 q 190 347 210 293 q 224 259 252 230 l 261 240 q 266 246 270 254 q 275 263 275 275 l 328 424 l 337 460 l 347 535 l 346 577 q 345 583 350 588 q 356 594 370 600 l 523 612 l 528 597 l 533 581 l 542 548 l 579 440 l 615 365 l 641 320 q 659 336 667 355 q 675 374 686 424 l 688 439 l 697 518 l 694 539 q 694 567 703 582 q 712 596 723 597 l 854 607 l 862 600 l 854 456 l 853 438 q 846 381 840 365 l 815 285 l 754 150 l 701 56 q 686 29 680 21 q 674 13 661 3 l 543 -4 l 532 18 l 561 117 l 572 145 q 575 151 575 158 q 575 167 570 175 l 506 275 l 494 294 l 487 304 l 467 330 l 462 329 l 423 215 l 366 86 l 326 16 l 252 1 l 152 -12 l 120 -6 l 107 89 l 88 175 l 47 326 l 28 415 l 17 461 z"},"-":{"x_min":0,"x_max":398,"ha":398,"o":"m 31 206 q 49 236 68 281 l 78 306 l 83 319 l 99 394 l 237 390 l 361 403 l 341 327 l 299 203 l 294 202 l 39 198 z"},"E":{"x_min":0,"x_max":688,"ha":688,"o":"m 43 -20 l 49 187 l 53 412 l 62 691 l 75 695 l 151 696 l 349 710 l 598 737 q 609 738 622 738 q 634 739 640 739 q 660 739 670 738 l 674 732 l 667 654 l 642 548 l 633 517 l 627 485 l 612 491 l 601 496 l 592 501 l 542 529 l 507 546 l 396 573 l 299 583 l 262 579 q 253 554 250 536 q 246 519 243 486 l 240 455 l 239 436 l 280 435 l 353 451 l 437 481 l 471 476 l 477 425 l 450 314 l 433 246 l 426 242 q 398 265 366 277 q 333 289 297 289 l 269 287 l 228 268 l 223 250 q 211 202 211 177 q 211 159 216 148 q 220 136 233 120 l 260 123 l 377 157 l 454 185 l 531 221 l 576 251 l 645 314 l 654 306 l 645 251 l 636 131 l 635 86 l 634 55 l 635 36 l 630 31 l 572 29 l 427 17 l 117 -19 l 98 -21 q 75 -21 64 -21 q 50 -21 43 -20 z"},"s":{"x_min":0,"x_max":520,"ha":520,"o":"m -14 -12 l 1 24 l 65 148 l 87 197 l 94 200 q 114 186 134 176 q 155 167 173 164 q 221 157 252 157 q 286 157 298 166 q 309 176 309 200 q 290 230 266 251 q 242 272 194 301 l 172 313 l 64 344 l 41 350 l 50 384 l 54 395 l 61 417 l 71 444 l 80 468 l 97 520 q 99 528 102 536 q 106 545 120 570 l 254 591 l 321 602 l 437 626 q 450 617 453 605 q 456 593 463 552 l 477 488 l 491 426 l 482 413 l 348 468 q 320 480 300 480 q 295 480 291 480 q 287 478 286 478 q 260 470 260 445 q 260 432 269 421 l 306 399 l 389 350 l 446 301 l 481 264 l 454 148 l 440 55 l 431 49 l 179 6 l 48 -18 q 43 -20 37 -20 q 29 -20 25 -20 q 13 -20 1 -17 z"},"l":{"x_min":0,"x_max":327,"ha":327,"o":"m 43 -22 l 46 -5 l 48 11 l 50 28 l 52 46 l 53 50 l 54 81 l 72 389 l 76 614 l 99 650 l 200 690 l 278 732 l 298 741 l 295 723 l 264 588 l 253 463 l 250 366 l 252 172 l 255 126 q 255 117 254 110 q 253 103 247 85 l 218 65 l 122 18 l 53 -22 z"},"8":{"x_min":0,"x_max":601,"ha":601,"o":"m 20 12 l 20 96 l 26 206 l 33 280 q 45 295 62 305 l 64 307 l 96 323 l 100 325 l 112 332 l 95 352 l 77 370 l 60 389 l 42 407 l 35 461 l 42 560 l 59 594 l 144 600 l 489 610 l 534 611 q 543 611 552 611 q 561 611 577 609 l 581 604 l 576 497 l 562 390 l 522 369 q 509 363 502 361 q 500 360 480 355 l 532 281 l 544 249 l 541 174 l 524 10 l 519 6 l 262 -2 l 72 -13 l 28 -7 z m 281 386 q 299 384 305 384 q 334 384 347 400 q 375 432 375 453 q 375 474 348 494 l 326 503 q 312 505 306 505 q 269 505 252 461 l 248 447 l 266 390 z m 320 124 q 335 126 347 128 q 359 129 383 135 l 404 140 q 406 146 406 159 q 406 174 401 191 l 394 207 l 322 285 q 313 293 300 303 q 286 313 273 319 l 256 328 l 246 318 q 228 295 220 279 l 164 166 l 164 141 l 197 110 z"},"e":{"x_min":0,"x_max":637,"ha":637,"o":"m 47 365 l 73 414 l 122 496 l 185 597 l 221 607 l 364 622 l 463 628 l 479 627 l 549 450 l 607 299 l 588 284 l 445 282 l 235 269 l 231 266 l 301 152 q 306 144 318 144 q 327 144 342 148 l 352 150 l 396 164 l 438 183 l 481 203 l 552 236 l 601 251 l 601 238 l 565 118 l 523 13 l 518 9 l 440 9 l 280 1 l 178 -10 l 162 19 l 105 118 l 53 220 l 37 255 l 22 289 q 21 292 21 299 q 21 310 27 328 z m 383 391 l 440 395 l 415 429 l 346 509 l 338 509 l 287 450 l 236 389 l 240 385 z"},"b":{"x_min":0,"x_max":576,"ha":576,"o":"m 43 -8 l 57 146 l 70 342 l 72 563 l 66 644 l 60 704 l 72 709 l 151 725 l 238 745 l 250 744 l 250 713 l 230 533 l 233 530 l 270 558 l 357 632 l 366 629 l 529 442 l 554 415 l 544 373 l 479 166 l 451 58 l 426 50 l 164 3 l 48 -15 z m 236 160 l 260 161 q 317 177 356 223 q 403 279 408 332 l 417 438 l 413 446 q 391 456 371 459 l 355 460 l 234 446 l 224 415 l 232 197 z"},"%":{"x_min":0,"x_max":854,"ha":854,"o":"m 39 588 l 142 728 l 157 731 q 169 733 186 734 q 203 734 212 735 l 315 731 l 327 720 l 375 594 l 387 545 l 312 406 l 286 353 l 155 374 l 121 382 l 86 387 l 73 405 l 47 524 z m 154 38 l 163 62 l 233 154 l 367 345 l 442 468 l 484 537 l 563 665 q 582 675 595 676 l 600 677 l 631 678 q 648 678 664 678 q 681 677 700 667 l 691 649 l 618 558 l 403 258 l 232 5 q 199 13 172 27 z m 425 160 l 433 188 q 446 229 469 267 l 560 366 l 582 380 l 707 356 l 715 347 l 804 170 l 805 154 l 723 20 l 700 -14 l 657 5 l 513 -3 l 485 39 z m 170 486 l 213 464 q 234 469 254 481 q 264 486 270 490 q 277 494 288 503 l 286 568 l 267 596 l 228 629 l 141 579 q 126 566 124 554 q 122 543 122 535 q 122 520 132 510 q 142 500 170 486 z m 618 94 q 624 92 629 92 q 640 92 650 97 q 661 102 669 110 q 677 118 679 123 l 692 165 l 655 241 q 645 242 636 244 q 628 245 616 245 q 600 245 590 243 q 581 241 577 241 q 547 217 536 182 l 545 128 z"},"m":{"x_min":0,"x_max":957,"ha":957,"o":"m 43 -19 l 54 122 l 56 244 l 54 462 l 54 587 l 67 595 l 192 626 l 239 630 q 242 614 244 598 q 246 582 246 565 l 246 542 l 256 542 l 389 645 l 403 645 l 477 578 l 531 522 l 544 526 l 651 600 l 667 613 q 681 623 694 627 q 707 631 720 631 q 728 631 732 630 l 772 621 l 853 591 l 887 549 l 909 434 l 914 310 l 908 171 l 888 74 l 873 33 l 777 11 l 676 -4 l 607 -7 l 595 7 l 600 21 l 690 151 l 730 238 l 747 324 l 760 400 q 761 404 761 412 q 761 439 744 469 l 733 487 q 729 488 719 488 q 699 488 679 479 l 608 434 l 595 424 l 567 221 l 538 93 l 535 83 q 527 58 521 50 q 515 41 506 39 l 419 14 l 339 3 l 302 5 l 317 25 l 385 109 q 389 119 393 128 q 397 138 402 156 q 408 173 412 190 q 415 207 419 243 l 432 352 q 434 366 434 374 q 434 380 432 402 q 432 412 431 419 q 430 424 424 449 q 406 454 391 454 q 357 454 277 417 q 258 408 236 389 l 233 77 l 224 33 l 205 27 l 130 5 l 47 -21 z"},",":{"x_min":0,"x_max":308,"ha":308,"o":"m -50 -168 q -50 -129 -34 -99 q -28 -88 3 -38 q 20 -13 35 27 l 62 97 l 83 117 l 154 146 l 194 159 l 231 178 l 255 192 l 266 198 l 273 198 l 269 177 q 265 159 262 148 q 258 138 247 119 l 188 22 l 127 -40 l 42 -110 l -45 -168 z"},"n":{"x_min":0,"x_max":683,"ha":683,"o":"m 43 563 l 56 574 q 81 591 103 600 l 230 652 l 236 646 l 238 554 l 270 563 l 434 665 l 455 665 l 647 457 l 644 417 l 630 341 l 609 223 l 581 105 l 573 58 l 391 6 l 326 -13 l 320 -3 l 386 95 l 422 165 l 455 252 l 474 326 l 482 376 q 485 400 485 416 q 485 430 482 444 q 480 457 474 473 q 462 491 446 498 q 431 504 427 505 q 421 507 415 507 q 412 507 406 505 l 332 473 l 234 417 l 229 413 l 229 330 l 234 178 l 233 100 l 231 82 q 228 56 215 32 l 107 -5 l 52 -21 l 49 -14 l 52 90 l 56 192 l 58 334 l 54 426 z"},"h":{"x_min":0,"x_max":654,"ha":654,"o":"m 50 -18 l 56 243 l 60 386 l 55 536 l 50 662 l 58 705 l 243 746 l 253 738 l 244 632 l 239 566 l 248 563 l 341 608 l 433 651 l 468 613 l 594 463 l 625 419 l 609 325 l 579 204 l 547 110 l 509 15 l 503 5 l 276 -15 l 290 12 l 337 76 l 343 89 l 366 120 l 399 190 l 415 231 l 423 255 l 429 274 q 436 297 439 312 q 442 326 443 336 q 443 379 442 388 q 438 418 417 438 l 337 410 l 240 364 l 229 350 l 211 257 l 202 40 l 197 3 l 55 -22 z"},"z":{"x_min":0,"x_max":636,"ha":636,"o":"m 36 -13 l 37 1 l 39 15 l 41 40 l 46 120 l 53 158 l 56 198 l 93 240 l 130 282 l 207 356 l 296 439 l 301 443 l 319 457 l 333 467 l 342 473 l 337 477 l 281 477 l 194 466 l 152 454 l 53 393 l 46 393 l 46 408 l 74 556 l 95 599 l 262 606 l 346 608 l 570 605 l 577 599 l 569 518 l 564 434 l 550 418 l 482 379 l 408 327 l 276 207 q 259 192 240 167 q 229 153 224 146 q 219 139 211 124 q 240 96 281 96 q 308 96 358 110 l 378 118 l 448 149 l 518 204 l 545 235 l 563 257 l 570 267 l 584 284 l 595 299 l 600 281 l 574 19 l 559 -8 l 337 5 l 53 -13 z"},"B":{"x_min":0,"x_max":709,"ha":709,"o":"m 43 8 l 51 215 l 60 550 l 62 687 l 70 693 l 270 713 l 576 734 q 605 734 620 734 q 635 734 647 733 l 649 706 l 623 585 l 596 516 l 552 452 l 556 439 l 635 337 l 654 267 l 668 191 l 673 63 l 669 19 l 632 15 l 303 1 l 52 -3 z m 377 490 l 449 518 l 454 523 l 417 556 l 341 604 q 331 610 323 612 q 315 613 300 613 q 294 613 287 612 q 280 611 276 611 l 258 606 l 258 587 l 257 465 l 266 463 z m 270 114 l 345 119 l 512 131 l 515 136 l 511 147 l 502 173 q 492 200 486 214 q 480 228 469 245 l 391 347 q 362 353 334 353 q 307 353 274 347 l 253 342 l 250 220 l 265 117 z"},"K":{"x_min":0,"x_max":724,"ha":724,"o":"m 43 -9 l 48 219 l 61 656 l 58 669 q 58 704 74 706 l 140 719 l 278 766 l 292 756 l 251 674 l 237 624 l 232 446 l 264 461 l 395 586 l 478 689 l 488 702 l 521 737 l 540 724 q 567 706 582 694 q 596 683 604 674 l 682 591 l 684 572 l 581 536 l 503 487 l 477 466 l 496 436 l 550 369 l 654 264 l 706 193 l 717 157 l 607 21 l 595 9 l 584 -3 l 572 -14 l 561 -25 l 553 -6 q 547 8 542 21 q 537 34 533 51 l 497 155 l 466 223 q 463 231 456 242 q 449 254 436 273 q 396 327 352 348 l 345 349 l 283 288 q 276 281 267 270 q 258 260 252 249 q 245 238 240 226 q 234 215 229 201 l 229 28 l 219 15 l 54 -20 z"},"R":{"x_min":0,"x_max":729,"ha":729,"o":"m 36 -11 l 50 88 l 69 257 l 74 374 l 74 558 l 70 723 l 75 729 l 167 734 l 628 745 l 717 743 l 723 723 l 690 651 l 633 569 l 568 493 l 510 439 l 509 434 l 610 310 l 741 158 l 739 148 l 662 66 l 552 -31 l 529 -36 l 532 37 l 518 110 l 484 194 l 443 255 q 419 297 375 297 l 366 294 l 259 194 q 259 167 260 151 q 261 135 266 112 l 281 21 l 278 16 l 81 -14 z m 346 444 l 390 492 q 424 521 433 565 q 405 587 368 595 l 345 598 l 263 604 l 258 599 l 249 515 l 249 379 l 258 379 z"},"T":{"x_min":0,"x_max":652,"ha":652,"o":"m -7 454 l 25 600 l 61 726 l 95 729 l 439 747 l 545 757 q 554 758 559 758 q 577 758 628 750 l 647 746 l 652 738 l 609 596 l 589 516 l 561 530 l 550 536 l 508 560 q 494 566 484 568 q 474 571 460 571 q 456 560 454 555 q 447 538 444 525 q 437 494 437 478 l 433 322 l 434 141 l 436 98 q 436 72 433 53 q 430 34 421 14 l 396 3 l 277 -31 l 177 -46 l 166 -37 l 240 274 l 253 403 l 256 529 l 254 566 q 218 566 193 562 q 168 559 142 547 l 50 492 l 25 470 l -3 452 z"},"P":{"x_min":0,"x_max":664,"ha":664,"o":"m 43 -33 l 43 -7 l 56 171 l 65 347 l 68 578 l 68 713 l 72 719 l 134 723 l 428 737 l 545 742 l 624 737 q 657 737 686 720 l 677 678 l 619 502 l 570 390 l 564 379 q 542 340 527 325 q 512 310 489 302 l 386 242 l 232 161 l 228 153 l 252 45 l 251 6 z m 320 372 l 400 432 l 420 459 l 475 559 l 475 598 l 396 602 l 391 601 l 266 575 l 239 561 l 233 347 l 254 348 q 273 351 284 354 q 303 360 320 372 z"},"t":{"x_min":0,"x_max":420,"ha":420,"o":"m 43 -1 l 43 60 l 43 213 l 44 258 l 49 406 l 52 446 l 58 574 l 74 621 l 222 677 l 252 675 l 241 485 l 266 483 l 318 511 l 409 583 l 427 584 l 426 559 l 383 380 l 373 296 l 366 282 l 256 337 l 229 346 l 224 334 l 218 205 l 218 181 q 218 150 222 130 q 227 110 236 96 l 288 4 l 285 -1 l 68 -6 z"},"M":{"x_min":0,"x_max":959,"ha":959,"o":"m 7 -20 l 34 101 l 40 129 l 44 151 l 52 202 l 61 259 l 82 669 l 84 718 l 121 725 l 262 744 l 365 746 l 370 739 q 370 710 370 680 q 371 651 374 626 q 382 576 389 550 q 396 525 404 509 l 441 439 l 488 377 l 498 374 l 525 413 l 572 481 l 624 573 l 671 684 l 679 711 q 680 718 692 734 l 929 752 l 945 745 l 911 600 l 896 487 l 891 342 l 893 146 l 893 40 l 875 10 l 651 -12 l 645 -5 l 679 109 l 699 202 l 711 302 l 712 335 l 710 367 l 703 368 l 691 361 q 651 336 637 321 q 623 306 618 283 l 560 138 l 537 40 q 518 15 493 4 q 468 -8 411 -15 l 391 -17 l 387 -11 l 382 89 l 365 202 l 346 274 l 318 347 l 294 392 q 283 413 274 422 q 265 430 258 430 q 245 430 243 416 l 240 377 l 239 341 l 239 331 l 239 318 l 242 286 l 260 48 l 251 32 l 126 9 l 11 -25 z"},"g":{"x_min":0,"x_max":623,"ha":623,"o":"m 29 194 l 43 291 q 44 301 47 310 q 50 319 58 343 q 63 358 68 372 q 73 385 79 394 l 130 476 l 172 523 l 242 586 q 270 611 315 632 l 340 642 l 345 633 l 376 536 l 385 536 l 571 647 l 580 646 l 572 577 l 559 463 l 553 347 l 550 194 l 548 60 l 549 -65 l 503 -88 l 400 -127 l 290 -163 l 176 -188 q 162 -191 151 -191 q 131 -191 111 -179 l 112 -173 l 215 -113 l 301 -48 l 354 13 l 349 30 l 344 46 l 338 62 l 332 77 l 325 79 l 154 -17 l 130 -25 l 85 26 l 48 93 l 43 107 q 33 140 30 162 q 27 183 29 194 z m 259 138 l 301 157 q 339 179 362 198 q 384 216 403 241 l 404 250 l 383 361 l 376 419 l 371 425 l 338 405 l 257 347 l 211 301 q 202 292 196 276 q 191 261 191 234 q 191 186 206 161 q 222 136 246 136 q 251 136 259 138 z"},"j":{"x_min":0,"x_max":310,"ha":310,"o":"m 43 607 l 44 661 l 106 698 l 238 748 q 244 750 249 744 q 254 737 254 721 l 254 689 l 252 643 l 227 630 l 197 618 l 52 556 z m -115 -151 l -105 -92 l -92 -15 l -37 -20 l 14 -31 l 60 -15 l 64 59 l 62 131 l 71 285 l 75 382 l 69 473 l 64 506 l 163 551 q 217 576 248 576 l 255 553 l 252 479 l 250 305 l 246 154 l 236 -50 l 235 -142 l 203 -161 l 53 -171 l -113 -187 z"},"i":{"x_min":0,"x_max":319,"ha":319,"o":"m 43 -7 l 51 72 l 65 248 l 70 372 l 65 457 l 65 492 l 119 521 l 213 561 l 255 575 q 265 562 267 548 q 269 533 269 501 l 250 275 l 248 118 l 253 63 l 262 11 l 258 7 l 219 5 l 123 -8 l 47 -11 z m 65 607 l 66 661 l 127 698 l 260 748 q 266 751 271 744 q 276 737 276 721 l 275 689 l 274 643 l 248 630 l 219 618 l 74 556 z"},"y":{"x_min":0,"x_max":618,"ha":618,"o":"m 0 574 l 13 583 l 158 600 l 190 609 l 224 616 l 227 605 l 231 522 l 251 407 l 274 320 l 292 270 l 298 270 l 354 347 l 374 388 l 445 588 l 455 595 l 616 615 l 618 599 l 561 458 l 446 191 l 376 11 q 371 -1 360 -16 q 350 -30 327 -53 q 304 -76 290 -88 q 276 -99 265 -104 l 196 -137 l 165 -122 l 129 -105 l 101 -91 l 92 -86 l 57 -64 l 60 -53 l 149 18 l 201 71 l 200 79 l 120 223 l 88 295 l 28 456 z"},".":{"x_min":0,"x_max":257,"ha":257,"o":"m 36 8 l 41 153 l 54 163 l 162 190 l 184 195 l 189 196 q 196 198 216 198 l 221 185 l 203 35 l 195 31 l 188 27 q 130 0 58 0 z"},"p":{"x_min":0,"x_max":574,"ha":574,"o":"m 43 53 l 46 130 l 58 378 l 53 590 l 56 598 l 118 615 l 224 633 q 232 640 244 640 q 261 638 258 628 l 247 587 l 239 543 l 264 555 l 325 610 l 364 619 l 452 548 q 467 535 484 508 q 500 482 512 446 q 513 442 519 422 q 525 401 525 388 l 536 201 l 536 122 l 206 7 l 202 2 l 220 -105 l 229 -129 l 233 -155 l 224 -154 q 207 -138 194 -127 q 181 -116 160 -101 l 128 -78 l 47 -20 z m 211 151 l 224 152 q 242 155 250 157 q 258 159 267 164 l 395 229 l 408 242 l 405 259 q 395 314 382 344 q 369 375 344 400 q 301 444 261 444 q 250 444 239 441 l 208 359 l 193 226 q 192 215 195 201 q 198 187 205 167 z"},"X":{"x_min":0,"x_max":738,"ha":738,"o":"m -22 -19 l -8 -1 l 106 134 l 223 292 l 288 390 l 252 440 l 181 520 l 97 602 l 32 660 l 66 679 l 270 731 l 284 713 l 389 556 l 401 553 l 415 581 l 429 609 l 478 716 l 489 722 l 571 731 l 696 739 l 738 732 l 720 700 l 667 625 l 511 403 l 533 370 l 557 339 l 667 178 l 734 62 l 729 47 l 674 34 l 512 19 l 491 61 l 469 134 l 454 173 l 440 203 l 436 213 l 423 240 l 418 251 l 409 255 l 353 199 q 347 193 340 181 q 332 169 317 141 l 287 83 l 256 23 l -8 -19 z"},"*":{"x_min":0,"x_max":453,"ha":453,"o":"m 282 629 l 355 715 l 361 715 l 413 629 l 375 608 l 357 599 q 337 593 321 593 q 302 593 290 600 q 278 608 278 619 q 278 623 282 629 z m 37 565 l 66 642 l 72 648 l 96 638 q 119 627 132 620 q 145 613 163 600 l 162 564 l 147 562 l 48 559 z m 284 508 l 303 544 l 357 520 q 373 512 391 504 q 409 495 409 485 q 409 480 401 470 q 393 459 378 441 l 370 433 l 358 441 z m 41 476 l 51 485 l 157 520 l 179 489 l 163 466 l 99 387 l 80 400 z m 188 361 l 212 488 l 255 495 l 262 470 l 299 375 l 255 360 l 191 354 z m 157 735 l 169 746 l 242 744 l 248 736 l 233 625 l 201 619 z"},"Y":{"x_min":0,"x_max":717,"ha":717,"o":"m -16 692 l 7 692 l 91 686 l 186 692 l 256 701 l 259 688 l 257 607 l 265 522 q 265 504 269 490 q 273 475 275 467 l 280 451 q 289 421 294 410 q 298 399 304 390 q 322 365 339 365 q 345 365 350 370 l 377 401 l 433 498 l 463 574 l 480 651 l 489 722 l 499 726 l 651 728 l 692 728 l 733 732 l 756 736 l 775 739 l 777 735 l 754 689 l 671 560 l 588 457 l 434 289 l 423 275 q 412 260 403 242 q 394 225 395 215 l 404 120 l 423 17 l 421 -2 l 318 -3 l 234 -16 l 193 -26 l 191 -19 l 206 63 l 247 206 l 214 261 l 128 379 l 106 414 l 96 433 l 87 448 l 69 482 l 29 568 l -11 671 z"},"c":{"x_min":0,"x_max":555,"ha":555,"o":"m 22 265 l 40 339 l 81 459 l 125 576 l 133 584 l 245 585 l 413 601 l 489 613 l 506 607 l 476 497 l 428 371 l 422 367 l 351 409 q 338 416 319 422 q 300 427 279 432 l 259 436 q 238 423 228 406 q 219 388 206 336 q 204 328 203 320 q 202 311 202 296 q 202 279 205 258 l 209 237 l 246 136 q 252 125 267 125 q 279 125 298 132 q 317 140 350 164 l 365 177 l 448 252 l 485 292 l 496 304 l 521 329 l 526 327 l 526 303 l 486 42 l 480 35 l 331 20 l 172 -8 l 125 -14 l 86 91 l 49 183 l 31 223 q 24 238 22 248 q 20 257 22 265 z"},"!":{"x_min":0,"x_max":292,"ha":292,"o":"m 38 653 l 67 666 l 94 681 l 172 722 l 250 760 l 256 759 l 255 645 l 240 482 l 224 312 l 222 268 l 195 250 l 108 204 l 98 212 l 93 370 l 91 402 l 74 519 l 71 538 l 66 562 l 62 583 l 57 604 z m 58 8 l 63 153 l 76 163 l 185 190 l 207 195 l 211 196 q 219 198 238 198 l 243 185 l 225 35 l 218 31 l 210 27 q 153 0 80 0 z"},"/":{"x_min":0,"x_max":514,"ha":514,"o":"m 29 16 l 79 110 l 142 233 l 215 369 l 266 474 l 311 583 l 354 688 l 427 722 l 456 732 l 484 737 l 487 732 l 440 657 l 354 497 l 215 209 l 120 6 l 33 0 z"},"6":{"x_min":0,"x_max":600,"ha":600,"o":"m 24 -13 l 25 15 l 33 124 l 42 280 l 42 299 l 57 519 l 62 583 l 70 587 l 181 589 l 342 599 l 557 616 l 576 609 l 572 596 l 566 511 l 554 475 l 349 470 l 270 458 l 229 436 l 262 404 l 297 394 l 395 403 l 530 421 l 568 416 l 553 248 l 551 139 l 553 95 l 553 51 l 551 5 l 547 2 l 224 4 z m 217 94 l 290 95 l 387 108 l 400 113 l 409 151 l 384 230 l 339 278 l 264 301 q 259 302 249 302 q 238 302 233 301 l 204 295 l 199 250 l 199 164 l 209 98 z"},"r":{"x_min":0,"x_max":461,"ha":461,"o":"m 29 -3 l 71 210 l 80 292 l 80 400 l 65 533 l 70 571 l 204 610 q 231 619 240 619 q 248 619 249 611 q 250 603 250 575 l 249 547 l 248 534 l 245 492 l 275 511 l 362 605 l 408 585 l 489 492 l 484 478 l 377 278 q 372 277 368 278 q 366 284 364 293 q 354 329 353 335 q 346 363 312 376 q 298 381 296 381 q 288 381 285 381 q 265 381 246 370 l 229 355 l 228 258 l 237 119 l 250 19 l 232 7 l 89 -8 l 32 -9 z"},"2":{"x_min":0,"x_max":604,"ha":604,"o":"m 33 104 l 105 196 l 205 306 l 239 351 l 300 436 q 302 442 288 448 q 273 454 255 454 q 237 454 204 448 l 190 445 l 167 405 l 145 364 q 136 347 112 336 q 101 332 84 329 q 67 326 51 326 l 38 325 l 38 362 l 42 491 l 43 577 l 51 583 l 409 595 l 485 596 l 525 598 q 530 598 538 598 q 547 598 566 595 l 569 590 l 559 461 l 556 433 q 555 421 547 404 l 533 401 l 409 341 q 400 337 390 331 q 380 325 368 316 q 355 307 347 299 q 343 296 329 280 l 283 203 q 274 189 277 175 q 277 165 286 157 q 295 149 306 149 q 324 149 337 153 l 372 164 l 380 166 q 408 177 421 188 l 483 236 l 575 325 l 576 295 l 561 196 l 528 21 l 518 21 l 222 4 l 41 -8 q 19 -10 19 21 q 19 36 23 53 z"},"9":{"x_min":0,"x_max":599,"ha":599,"o":"m 7 65 l 22 200 l 48 467 l 52 569 l 59 576 l 135 583 l 368 596 l 423 603 l 502 617 l 576 634 l 592 630 l 583 573 l 548 404 l 517 157 l 509 103 l 498 86 q 477 59 448 47 l 323 -8 l 243 -36 l 114 -64 l 94 -65 q 66 -65 41 -52 l 75 -27 l 114 -14 l 179 24 l 248 78 l 325 161 l 326 168 l 308 166 l 55 82 l 12 62 z m 152 256 q 150 246 150 241 q 150 208 175 208 l 193 210 l 279 236 l 328 258 l 353 269 l 377 281 l 390 377 l 399 478 l 383 515 l 362 515 q 331 515 293 484 l 277 468 l 226 409 l 186 348 l 178 331 q 169 311 164 296 q 158 281 152 256 z"}," ":{"x_min":0,"x_max":290,"ha":290,"o":""},"I":{"x_min":0,"x_max":337,"ha":337,"o":"m 36 10 l 51 134 l 59 195 l 68 374 l 73 679 q 73 691 91 703 l 124 710 l 174 726 l 281 741 l 301 733 l 273 526 l 274 263 l 274 153 l 274 120 q 274 111 281 87 l 277 78 l 186 33 l 132 13 l 39 5 z"},"H":{"x_min":0,"x_max":696,"ha":696,"o":"m 43 -7 l 52 455 l 57 693 l 67 701 l 172 713 l 306 743 l 373 758 l 377 744 l 266 584 q 252 561 244 529 l 241 512 l 243 507 q 274 507 288 508 q 303 510 330 519 l 440 552 l 517 568 l 521 572 l 511 598 l 502 618 l 496 632 l 482 663 q 481 664 475 680 q 465 706 463 710 l 470 716 l 596 746 l 650 760 l 667 747 l 656 647 l 627 185 l 621 42 l 613 -5 l 539 -11 l 442 -23 l 355 -36 l 274 -40 l 276 -26 l 330 20 l 398 103 l 424 150 q 436 174 441 184 q 446 194 447 199 l 470 273 l 483 335 l 475 340 l 357 354 l 213 352 l 200 341 l 193 278 l 202 193 l 223 74 l 228 32 l 182 12 l 48 -13 z"},"4":{"x_min":0,"x_max":600,"ha":600,"o":"m -14 86 l -10 95 l 99 250 l 134 301 l 181 387 l 209 468 l 230 554 l 258 571 l 407 597 l 497 626 l 506 622 l 459 554 l 168 172 l 191 148 l 212 148 l 366 166 l 370 318 l 372 387 l 402 407 l 522 478 l 557 495 l 551 445 l 542 350 l 532 125 l 534 -56 l 527 -62 l 339 -99 q 342 -75 348 -57 q 353 -39 358 -23 q 360 -16 361 -11 q 366 9 366 26 l 361 29 l 26 -4 q -6 36 -14 86 z"},"D":{"x_min":0,"x_max":706,"ha":706,"o":"m 29 -17 l 35 33 l 67 253 l 81 383 l 85 499 l 71 661 q 73 664 74 665 q 85 676 112 684 l 144 694 l 218 717 l 294 734 q 313 738 330 739 q 346 740 369 740 q 376 740 380 740 l 470 688 l 541 631 l 594 572 l 627 519 l 656 441 l 672 327 l 677 225 l 669 136 q 669 116 666 102 q 662 87 654 68 l 503 35 l 303 5 l 91 -21 q 73 -23 66 -23 q 49 -23 29 -17 z m 250 139 l 256 123 q 265 124 273 126 q 281 127 292 131 l 326 144 l 436 195 l 507 239 l 510 279 l 485 369 l 483 375 q 462 422 457 432 q 447 452 440 464 l 391 527 l 327 576 q 323 577 315 577 q 290 577 267 562 q 253 529 247 507 q 238 476 238 443 l 236 419 l 230 330 l 233 202 q 233 196 236 182 q 240 169 250 139 z"},"0":{"x_min":0,"x_max":599,"ha":599,"o":"m 42 9 l 47 145 l 60 326 l 67 448 l 79 590 l 85 596 l 427 609 l 468 612 l 510 611 l 538 609 l 552 608 l 557 600 l 552 412 l 542 250 l 525 79 l 520 48 l 493 38 l 312 11 l 179 -3 l 52 -14 z m 301 130 l 391 141 l 395 144 l 403 230 l 395 316 l 372 418 q 358 463 329 502 l 319 507 q 300 491 290 476 q 281 462 268 431 l 219 316 l 190 208 l 187 163 l 207 130 z"},"F":{"x_min":0,"x_max":667,"ha":667,"o":"m 43 -46 l 48 69 l 57 408 l 58 715 l 72 722 l 195 727 l 335 731 l 661 724 q 671 729 680 729 q 683 729 690 727 q 698 725 704 718 q 710 712 709 708 l 698 667 l 691 640 l 687 625 l 673 584 l 635 509 l 632 506 l 589 522 l 410 582 l 352 599 l 266 603 l 251 597 l 253 504 l 269 458 l 350 469 l 454 509 l 502 515 l 480 443 l 443 329 l 422 306 l 327 315 q 319 316 314 316 q 295 316 269 310 l 251 305 l 260 45 l 245 31 l 132 -8 l 48 -47 z"},"`":{"x_min":0,"x_max":341,"ha":341,"o":"m 1 815 l 63 832 l 100 820 l 128 823 l 223 815 l 223 785 l 264 732 l 283 676 l 196 686 l 119 671 l 92 719 l 46 761 z"},"k":{"x_min":0,"x_max":659,"ha":659,"o":"m 43 -9 l 49 216 l 54 448 l 61 637 l 70 673 l 167 701 l 258 740 l 275 742 l 232 553 l 223 492 l 232 404 l 244 405 l 304 457 l 346 514 l 445 655 l 450 655 l 608 492 l 618 480 l 610 473 l 525 423 l 437 368 l 433 364 l 550 227 l 636 95 q 649 75 654 61 q 659 47 659 31 l 633 21 l 483 -13 l 457 -18 l 452 -6 l 437 128 l 428 167 l 418 205 q 410 236 399 252 q 388 267 361 288 l 345 298 l 332 298 l 233 216 q 221 207 221 176 l 223 163 l 244 40 l 248 23 l 127 7 l 48 -14 z"},"u":{"x_min":0,"x_max":660,"ha":660,"o":"m 43 35 l 49 188 l 51 282 l 62 567 l 63 586 l 81 595 l 191 630 l 219 629 l 209 516 l 209 411 l 224 312 q 227 290 240 274 q 253 258 290 232 l 304 222 q 336 230 359 258 q 382 285 407 351 q 411 362 416 382 q 422 401 426 420 l 442 504 q 444 513 440 542 l 431 579 l 441 587 l 516 605 l 591 630 l 617 630 l 596 477 l 570 113 l 567 40 l 474 3 l 392 -22 l 366 -28 l 367 15 l 363 58 l 364 110 l 359 115 l 303 96 l 153 21 l 77 -10 l 44 -19 l 44 -5 l 43 8 l 43 22 z"},"U":{"x_min":0,"x_max":675,"ha":675,"o":"m 43 -1 l 60 479 l 65 683 l 91 701 l 242 724 l 271 724 l 269 697 l 252 581 l 241 427 l 234 289 l 239 203 l 252 169 l 335 185 l 447 219 l 454 231 l 452 371 l 446 442 q 440 498 434 526 q 429 553 417 586 l 386 671 l 383 696 l 473 710 l 577 741 l 623 753 l 632 745 l 617 641 l 608 518 l 603 301 l 596 117 l 595 34 l 584 25 l 329 -1 l 162 -18 l 65 -17 z"},"o":{"x_min":0,"x_max":664,"ha":664,"o":"m 22 235 l 73 374 l 82 389 l 114 480 l 155 596 l 161 602 l 311 620 l 440 644 l 457 644 l 573 478 l 642 388 l 584 190 l 537 63 q 531 35 510 17 l 429 12 l 308 -4 l 231 -22 l 208 -27 l 169 37 l 73 170 z m 277 153 q 281 149 285 145 q 294 137 305 131 q 316 125 323 122 q 330 120 338 118 l 371 139 l 412 211 l 489 362 l 487 375 l 389 461 q 365 485 331 485 l 310 482 l 193 305 l 180 281 l 224 216 z"},"N":{"x_min":0,"x_max":710,"ha":710,"o":"m 36 -18 l 56 96 l 65 211 l 59 598 l 51 726 l 61 731 l 189 751 l 204 753 q 220 753 230 752 q 239 751 250 745 l 427 643 l 473 621 l 489 615 l 491 620 l 485 705 l 495 717 l 628 744 l 662 745 l 667 736 l 667 651 l 652 295 l 646 47 q 613 22 580 12 q 547 3 458 -7 l 436 -9 l 434 -3 l 458 170 l 476 360 l 479 441 l 476 447 l 254 526 l 245 521 l 239 100 l 235 34 l 229 29 l 45 -25 z"},"G":{"x_min":0,"x_max":714,"ha":714,"o":"m 36 3 l 47 121 l 50 180 l 58 316 l 73 543 l 70 650 l 72 682 l 73 713 l 87 717 l 259 727 l 435 731 l 605 735 l 649 735 l 695 735 l 700 730 l 685 696 l 620 590 l 592 552 l 574 529 l 563 514 l 537 526 l 438 566 l 342 585 q 324 587 314 587 q 304 587 292 586 q 280 584 266 580 l 243 572 l 234 561 l 225 462 l 223 282 l 231 190 l 260 123 q 266 122 277 122 q 305 122 330 136 l 427 174 l 467 194 l 473 218 q 475 236 475 244 q 475 266 467 292 q 428 302 384 302 l 370 336 l 361 370 l 371 374 l 468 388 l 615 416 l 662 432 l 667 428 l 654 268 l 648 25 l 644 19 l 371 -1 l 124 -14 l 41 -5 z"},"q":{"x_min":0,"x_max":575,"ha":575,"o":"m 36 210 l 40 261 l 53 336 l 63 379 l 100 452 l 109 465 l 157 529 l 195 560 l 262 599 l 350 620 l 361 619 l 426 509 l 439 509 l 471 553 l 522 610 l 531 608 l 532 518 l 523 212 l 518 -7 l 512 -95 l 484 -104 l 280 -145 l 272 -141 l 283 -110 l 313 -35 l 328 28 q 321 53 297 53 q 287 53 267 48 l 231 38 l 226 36 l 186 21 l 84 -29 l 79 -26 l 58 29 l 42 103 z m 267 173 l 366 214 l 369 225 q 374 250 374 268 q 374 299 361 337 l 354 356 l 318 424 l 286 411 l 227 362 q 215 352 200 330 q 182 304 164 268 q 143 225 139 174 l 170 151 z"},"d":{"x_min":0,"x_max":611,"ha":611,"o":"m 29 2 l 30 69 l 56 272 q 60 307 80 353 q 101 399 127 438 q 153 476 176 497 l 262 576 l 319 617 l 325 614 l 385 566 l 392 567 l 388 623 q 382 658 382 672 q 382 683 386 688 q 390 693 400 695 l 482 713 l 565 741 l 575 730 l 554 566 l 545 434 l 539 244 l 539 53 l 539 22 l 503 10 l 391 -14 l 385 -2 l 380 10 l 374 24 l 368 38 l 336 38 l 34 -5 z m 210 239 q 208 228 208 218 q 208 208 208 203 q 208 189 209 183 q 214 152 241 152 q 256 152 271 160 l 281 165 l 306 177 l 345 197 q 355 203 364 208 q 373 214 382 222 l 386 329 l 392 423 l 361 444 l 282 371 l 264 351 q 239 320 226 292 q 212 264 210 239 z"},"1":{"x_min":0,"x_max":600,"ha":600,"o":"m 81 361 l 154 434 l 173 452 l 245 546 l 282 596 l 386 612 l 421 600 l 425 579 l 416 372 l 404 99 l 397 29 l 391 25 l 219 -10 l 215 0 l 235 274 l 219 374 q 216 391 205 391 q 192 391 157 369 l 106 343 z"},"5":{"x_min":0,"x_max":599,"ha":599,"o":"m 39 -22 l 60 -18 q 106 -7 130 4 q 154 14 173 29 l 207 57 l 265 123 l 288 161 l 311 235 l 295 281 l 238 291 l 86 295 l 63 304 l 85 432 l 93 485 l 94 491 l 101 537 l 104 553 l 109 590 l 117 595 l 350 597 l 513 601 l 560 587 l 559 503 l 555 498 l 382 455 l 356 449 q 316 435 294 399 l 307 391 l 391 387 l 426 385 l 438 384 l 460 382 q 495 378 526 365 l 534 359 l 520 197 l 494 58 l 484 48 l 395 10 l 239 -27 l 146 -36 l 43 -29 z"}}}
